<svg width="216" height="69" viewBox="0 0 216 69" fill="none" xmlns="http://www.w3.org/2000/svg">
<path d="M86.9625 18.3669C87.216 17.4835 87.6364 16.9984 88.4125 16.9984C90.0064 16.9984 90.0178 16.973 91.1246 16.9984C91.6879 17.0117 92.5589 16.9984 92.3305 17.8218C92.2063 18.266 91.423 20.6046 91.2873 21.0468C90.6083 23.2019 90.5999 23.2681 89.9511 25.4284C89.6548 26.4198 89.5933 26.7469 91.0766 26.7469C92.368 26.7469 93.6594 26.7917 94.9519 26.8131C95.9043 26.8304 96.3205 27.4072 95.9898 28.256C95.85 28.6177 95.7478 28.9978 95.5725 29.3402C95.1136 30.2307 94.7725 30.6271 93.8816 30.6577C92.3764 30.7097 90.8711 30.7331 89.3659 30.7728C88.4782 30.7952 88.0995 30.8543 87.7407 32.0771C86.8373 35.1503 85.863 38.2469 86.1071 41.42C86.1361 41.7391 86.2323 42.0488 86.3898 42.3298C86.5472 42.6108 86.7624 42.857 87.022 43.0528C87.2815 43.2486 87.5797 43.3898 87.8978 43.4676C88.2159 43.5454 88.547 43.5581 88.8704 43.5048C88.9933 43.4858 89.1141 43.4558 89.2313 43.4151C90.3162 43.0361 90.9296 42.7508 92.1771 41.6829C93.0509 40.909 93.8402 40.0488 94.5325 39.1161C95.4714 37.8934 96.5729 36.6991 97.1028 35.2756C97.6839 33.7187 98.1168 32.6956 98.6561 31.695C100.534 28.2111 103.677 26.5074 106.41 26.0509C108.494 25.7123 110.633 26.0893 112.465 27.1178C113.493 27.7057 115.067 29.5205 115.113 31.4025C115.154 32.5132 115.204 33.6891 113.687 33.7666C112.892 33.8032 112.093 33.7839 111.297 33.7523C110.678 33.7278 110.247 33.47 110.247 32.8108C110.247 31.5024 109.1 31.0184 107.734 31.0184C102.102 31.0184 99.3414 38.0747 102.519 41.1826C105.857 44.4433 112.389 43.0351 114.828 41.0919C117.315 39.1131 118.258 37.7212 119.835 33.575C120.114 32.8373 120.314 32.0547 120.554 31.2925C121.544 28.0216 122.628 24.7772 123.714 21.5339C124.214 19.9412 124.647 18.3313 125.127 16.7335C125.341 16.0202 125.494 15.2642 125.876 14.6344C126.108 14.2493 126.698 13.8998 127.174 13.8335C128.088 13.7082 129.036 13.7765 129.968 13.802C130.629 13.8203 131.103 14.3868 130.923 14.932C129.324 19.5774 127.864 24.2739 126.424 28.9733C126.415 29.0379 126.418 29.1035 126.434 29.1669C127.404 28.4873 128.327 27.7098 129.376 27.129C133.132 25.033 138.83 26.1467 139.123 30.9043C139.173 33.1745 138.422 35.2196 137.633 37.3951C137.259 38.4263 136.45 40.5101 136.18 42.1221C135.928 43.6179 137.476 43.6841 138.388 43.3163C139.173 43.0004 140.332 42.1567 140.898 41.5718C141.941 40.4927 142.327 40.1453 143.259 38.9745C143.762 38.3437 144.441 37.2484 144.824 36.5555C145.16 35.9532 146.18 32.8271 146.389 32.1678C148.123 26.7316 148.588 24.9464 149.985 20.2204C150.451 18.6451 151.011 17.0932 151.445 15.5108C151.752 14.449 152.482 13.802 153.638 13.7877C154.306 13.7795 154.975 13.7816 155.697 13.7826C156.445 13.7826 157.014 14.4307 156.855 15.1164C156.855 15.1225 156.855 15.1287 156.855 15.1348C156.549 16.3789 156.206 17.617 155.812 18.8387C155.417 20.0604 155.038 21.2842 154.652 22.507C154.049 24.4644 153.386 26.3964 152.764 28.3528C151.56 32.1331 150.488 35.7739 149.738 39.5848C149.583 40.4051 149.435 41.3395 149.752 42.118C150.113 43.0065 150.811 43.4426 151.866 43.3173C155.035 42.9474 156.984 40.076 158.28 37.7803C159.788 35.1085 160.142 33.8817 160.814 31.8346C161.232 30.565 161.707 29.3126 162.171 28.0552C162.476 27.2207 163.092 26.6919 164.069 26.7021C164.975 26.7122 165.882 26.6847 166.788 26.6827C167.734 26.6827 168.06 27.2941 167.745 28.0919C167.301 29.222 166.949 30.3836 166.535 31.5238C166.121 32.664 165.627 33.7767 165.266 34.9292C164.89 36.1244 164.487 37.3258 164.302 38.5587C164.127 39.7112 164.128 40.3613 164.445 41.2009C164.599 41.6085 165.049 42.0222 165.476 42.2199C166.728 42.7875 169.192 42.3075 170.275 41.1877C171.357 40.0678 172.069 38.4915 172.524 37.549C173.254 36.0205 174.031 34.1864 174.273 33.6056C175.246 31.2619 175.976 29.5745 176.584 27.6956C176.831 26.9262 177.097 26.7581 178.077 26.7571C178.666 26.7571 179.505 26.7571 180.77 26.7571C181.702 26.7571 181.94 27.2105 181.68 27.9554C180.721 30.7127 179.72 33.4578 178.798 36.2263C177.755 39.3851 176.951 42.6081 175.669 45.6925C175.606 45.8688 175.546 46.0797 175.766 46.2784C175.889 46.3905 176.27 46.364 176.405 46.255C177.504 45.3736 178.612 44.4973 179.639 43.5405C180.412 42.818 180.907 42.388 181.681 41.6615C182.185 41.1897 182.888 40.8392 183.63 41.4832C184.197 41.9764 184.013 42.546 183.734 42.7752C180.338 45.5957 178.995 46.6982 175.724 49.5819C174.754 50.4368 174.008 50.8251 173.493 51.8766C172.482 53.9431 171.376 55.9994 170.024 57.8804C168.076 60.5908 165.153 61.8085 161.69 61.6984C159.659 61.6342 157.906 60.8761 156.787 59.1775C154.85 55.5092 156.809 51.9581 160.286 50.4542C162.956 49.266 165.825 48.6944 168.735 48.299C169.265 48.2267 169.507 48.0147 169.706 47.4584C170.019 46.5892 170.123 45.9534 170.381 45.0424C164.925 49.2202 159.233 46.795 158.447 42.3697C156.485 44.6165 154.916 46.9418 151.846 47.9159C149.631 48.618 147.882 47.9954 146.602 47.2169C145.569 46.5862 144.848 45.3481 144.529 44.5676C144.21 43.7871 144.098 42.3147 144.194 42.1842C142.421 44.5961 141.019 48.029 137.205 48.029C130.792 48.029 130.375 44.2436 130.816 42.2321C131.233 40.3093 132.031 38.0136 132.627 36.1041C133.044 34.757 133.293 33.8878 133.442 32.7527C133.65 31.1519 132.162 30.6607 130.702 30.9461C125.501 32.0924 122.391 41.798 121.222 46.2183C120.882 47.5042 119.991 47.8487 119.184 47.9292C118.172 48.0168 117.154 48.0168 116.142 47.9292C115.621 47.8884 115.292 47.4859 115.437 46.9295C115.646 46.1144 116.2 44.9049 116.419 44.1233C115.397 45.1087 113.051 46.5688 109.98 47.3392C107.581 47.9434 102.523 48.2145 98.7896 44.5034C97.784 43.5038 96.89 41.9988 96.5646 40.9044C94.0099 44.267 90.9191 48.4845 85.8589 48.2746C83.5556 48.2063 81.8063 47.0763 80.9217 45.0842C80.6088 44.377 80.5399 43.5741 80.4502 42.7742C80.4406 42.712 80.4127 42.6538 80.3699 42.6067C80.3272 42.5596 80.2714 42.5256 80.2093 42.5088C80.1472 42.492 80.0815 42.4931 80.02 42.512C79.9585 42.5309 79.904 42.5667 79.8629 42.6152C79.8027 42.6871 79.7379 42.7552 79.6689 42.819C78.1355 44.2048 76.7293 45.7302 74.8058 46.6911C71.305 48.4335 67.6614 48.8309 63.9228 47.547C62.2788 46.9703 60.9989 45.8668 60.0517 44.4402C58.318 41.8398 58.27 39.0397 58.6956 36.1234C58.9335 34.4584 59.5174 32.8584 60.4116 31.4219C61.9763 28.8979 63.6672 27.5824 66.2782 26.7815C70.603 25.2337 76.6052 26.1702 76.9474 31.3598C77.1299 33.4537 76.3215 35.2318 74.6848 36.6675C71.982 39.0774 68.8109 39.6949 65.2361 40.0617C64.4182 40.1748 63.9238 40.4632 64.5914 41.5841C65.4134 42.9627 67.0282 43.5894 68.6596 43.6729C70.7115 43.7748 71.8777 43.4763 72.996 42.9087C75.6038 41.5841 77.5732 40.5019 79.2725 38.5323C80.3542 37.2769 81.3963 35.9787 81.9085 34.4065C82.2104 33.4732 82.4584 32.524 82.6512 31.5635C82.8265 30.6984 82.5167 30.6872 81.8511 30.6556C81.3546 30.6322 81.1877 30.6322 80.542 30.6108C79.6783 30.5813 79.4895 30.514 79.6741 29.9312C79.9558 29.0406 80.349 28.2713 80.6567 27.2931C80.8518 26.6766 81.0166 26.7836 82.4499 26.7917C84.4214 26.805 84.3807 26.6053 84.8251 25.1746M71.8308 33.1124C71.9455 31.64 71.3176 30.8228 69.6579 30.8085C66.5556 30.6954 64.6185 33.6728 64.0479 35.7423C64.002 35.9105 63.9436 36.1499 63.9155 36.3017C63.7684 36.961 64.5893 37.067 64.8167 37.0466C67.968 36.8031 71.6461 35.4733 71.8308 33.1124ZM162.047 57.3913C162.7 57.4137 163.557 57.3913 164.381 56.7361C164.961 56.2871 165.486 55.7742 165.946 55.2076C166.619 54.3358 167.244 53.4286 167.816 52.49C167.945 52.2812 168.12 52.0376 167.757 51.6596C167.644 51.5424 167.223 51.4955 166.987 51.5648C165.475 52.0081 163.962 52.4472 162.482 52.9791C161.641 53.2848 161.072 53.6506 160.543 54.6421C159.895 55.8526 160.305 57.3291 162.047 57.3913Z" fill="white"/>
<path d="M58.4375 29.5042C58.5418 29.1099 58.0818 28.7736 57.6645 28.7746C56.9343 28.7746 55.7253 28.7746 54.652 28.7746C52.4489 28.7644 48.1324 28.7013 45.9313 28.7563H45.9094C43.9275 28.7563 44.4344 27.9992 44.6837 27.2329C45.4901 24.7569 46.3225 22.3348 47.1101 19.8505C47.4387 18.8193 47.833 18.5198 49.0034 18.5442C53.2114 18.5524 61.2195 18.5381 65.4275 18.5137C65.7917 18.5057 66.1482 18.4101 66.4655 18.2355C67.1623 17.8452 67.3699 17.03 68.0771 14.3573C68.1814 13.9436 67.7704 13.5992 67.1289 13.587C66.6376 13.5778 66.1421 13.5656 65.6476 13.5656C59.7477 13.6114 50.0403 13.5187 44.1403 13.6114C43.6886 13.6236 43.0283 14.0893 42.8489 14.4948C42.2835 15.7889 41.8902 17.1503 41.4479 18.4912C39.684 23.8846 38.9475 26.4667 36.298 34.0468C35.3216 36.7664 34.5466 39.5492 33.6714 42.2933C33.155 43.9032 32.5865 45.4999 32.0535 47.1079C31.85 47.7192 32.2548 48.0983 32.8003 48.1268C34.071 48.211 35.3462 48.2063 36.6161 48.1126C37.1377 48.0739 37.9013 47.6102 38.0536 47.1833C39.0393 44.4321 39.8864 41.6319 40.7772 38.8481C41.1673 37.6254 41.3937 36.7582 41.9799 34.8742C42.1531 34.3198 42.7811 33.7879 43.4195 33.7879C43.9254 33.7879 44.4 33.8043 44.9435 33.7879C48.1668 33.6952 51.9012 33.7625 55.6794 33.7625C57.0272 33.7686 57.773 32.0088 58.4375 29.5042Z" fill="white"/>
</svg>
